<svg width="21" height="22" viewBox="0 0 21 22" fill="none" xmlns="http://www.w3.org/2000/svg">
<path d="M8.58207 1.95527C8.12776 1.37602 7.58029 0.911624 6.97225 0.589753C6.36421 0.267882 5.70804 0.0951112 5.0428 0.0817287C4.37757 0.0683463 3.71688 0.214626 3.10007 0.511857C2.48326 0.809088 1.92295 1.25119 1.45249 1.81185C0.98203 2.3725 0.611049 3.04024 0.361636 3.77531C0.112223 4.51037 -0.010523 5.29773 0.000706464 6.0905C0.011936 6.88328 0.156912 7.66525 0.427001 8.38986C0.69709 9.11448 1.08677 9.76691 1.57284 10.3083L10.6184 21.0881L19.6639 10.3083C20.5422 9.18847 21.021 7.70573 20.9993 6.1731C20.9776 4.64046 20.457 3.17783 19.5475 2.09394C18.638 1.01004 17.4107 0.38969 16.1246 0.363818C14.8385 0.337946 13.5943 0.908581 12.6546 1.95527L10.6184 4.38195L8.58207 1.95527Z" fill="#AF1816"/>
</svg>
